<svg xmlns="http://www.w3.org/2000/svg" xmlns:xlink="http://www.w3.org/1999/xlink" viewBox="0 0 600 207.3"><defs><style>.cls-1{fill:#3e454c;}.cls-2{fill:url(#Gradient_bez_nazwy_57);}.cls-3{fill:#ff530d;}.cls-4{fill:#96ca2d;}.cls-5{fill:url(#Gradient_bez_nazwy_33);}</style><linearGradient id="Gradient_bez_nazwy_57" x1="583.16" y1="41.01" x2="583.16" y2="101.95" gradientUnits="userSpaceOnUse"><stop offset="0.48" stop-color="#3e454c"/><stop offset="1" stop-color="#ff530d"/></linearGradient><linearGradient id="Gradient_bez_nazwy_33" x1="125.03" y1="101.23" x2="152.55" y2="163.75" gradientUnits="userSpaceOnUse"><stop offset="0.17" stop-color="#3e454c"/><stop offset="0.65" stop-color="#72943a"/><stop offset="0.97" stop-color="#96ca2d"/></linearGradient></defs><title>Zasób 2</title><g id="Warstwa_2" data-name="Warstwa 2"><g id="Warstwa_1-2" data-name="Warstwa 1"><path class="cls-1" d="M171.48,0h26.29V147.22H171.48Z"/><path class="cls-1" d="M226,0h26.29V147.22H226Z"/><path class="cls-1" d="M385.58,96.78H297.46q2.32,13.1,12.09,20.75t24.3,7.65q18.5,0,30.49-12.87l14.09,17.08a47.48,47.48,0,0,1-19.12,14.42,66.5,66.5,0,0,1-26.1,4.89q-18.49,0-32.59-7.77a54.09,54.09,0,0,1-21.77-21.63,63.79,63.79,0,0,1-7.68-31.39,64.54,64.54,0,0,1,7.47-31.18A54.53,54.53,0,0,1,299.35,35.1a58,58,0,0,1,29.87-7.76A56.58,56.58,0,0,1,358.57,35a53.1,53.1,0,0,1,20.19,21.52Q386,70.39,386,88.57C386,90.49,385.86,93.23,385.58,96.78ZM307.87,57.4q-8.73,7.88-10.62,21H361q-1.69-12.87-10.31-20.86t-21.45-8Q316.61,49.52,307.87,57.4Z"/><path class="cls-1" d="M469.92,27.34V50c-2.24.18-4.82.33-6.63.57a37.27,37.27,0,0,0-23.44,11.94q-8.64,9.45-8.62,27.2v57.5H404.94V28.66h25V46Q441.31,27.33,469.92,27.34Z"/><path class="cls-1" d="M557.63,140.57a30.31,30.31,0,0,1-11.27,6.1,47.43,47.43,0,0,1-14,2q-18.52,0-28.61-10.38t-10.1-30.24v-58h-18.5V27.53h18.5V0H520V27.53h30.08V50.1H520v57.31q0,8.81,4,13.42c2.66,3.08,6.53,4.63,11.58,4.63q8.82,0,14.71-5Z"/><path class="cls-2" d="M567.58,0l5,110.45h.51a16.4,16.4,0,0,1,10.44-3.2,15.6,15.6,0,0,1,9.93,3.2L598.73,0Z"/><path class="cls-3" d="M595.28,120.79a15.83,15.83,0,0,0-11.78-4.71c-5,0-9.09,1.51-12.29,4.71a15.3,15.3,0,0,0-4.89,11.46A16,16,0,0,0,571.21,144a17.14,17.14,0,0,0,12.29,4.72A16.48,16.48,0,0,0,595.28,144,15.87,15.87,0,0,0,600,132.25,15.15,15.15,0,0,0,595.28,120.79Z"/><path class="cls-1" d="M116.3,113.15H42.7L28.18,147.22H0L66.25,0H93.17l66.46,147.22H131Zm-9-21.45L79.5,27.34,51.94,91.7Z"/><polygon class="cls-4" points="170.16 207.3 134.01 179.78 175.92 162.23 170.16 207.3"/><polygon class="cls-5" points="164.7 158.4 140.28 168.84 113.34 106.54 113.34 106.37 141.12 106.37 164.7 158.4"/></g></g></svg>